<svg width="62" height="26" viewBox="0 0 62 26" fill="none" xmlns="http://www.w3.org/2000/svg">
<path fill-rule="evenodd" clip-rule="evenodd" d="M6 6.87678L30.5 20.3145L30.5783 20.1717L31.0101 20.548L54.6127 6.81184L53.7556 6.06494L30.8761 19.3802L6.48089 6L6 6.87678Z" fill="black"/>
<path d="M30.5 20.3145L28.5764 23.8216L32.0836 25.7452L34.0071 22.238L30.5 20.3145ZM6 6.87678L2.49288 4.95321L0.569311 8.46032L4.07643 10.3839L6 6.87678ZM30.5783 20.1717L33.2061 17.156L29.4604 13.892L27.0712 18.2482L30.5783 20.1717ZM31.0101 20.548L28.3823 23.5637L30.544 25.4474L33.0221 24.0052L31.0101 20.548ZM54.6127 6.81184L56.6247 10.269L61.4477 7.46215L57.2406 3.79614L54.6127 6.81184ZM53.7556 6.06494L56.3834 3.04924L54.2218 1.16557L51.7436 2.60778L53.7556 6.06494ZM30.8761 19.3802L28.9526 22.8873L30.9345 23.9744L32.8881 22.8374L30.8761 19.3802ZM6.48089 6L8.40447 2.49288L4.89735 0.569311L2.97378 4.07643L6.48089 6ZM32.4236 16.8073L7.92357 3.36966L4.07643 10.3839L28.5764 23.8216L32.4236 16.8073ZM27.0712 18.2482L26.9929 18.3909L34.0071 22.238L34.0854 22.0953L27.0712 18.2482ZM33.6379 17.5323L33.2061 17.156L27.9505 23.1874L28.3823 23.5637L33.6379 17.5323ZM52.6008 3.35468L28.9981 17.0908L33.0221 24.0052L56.6247 10.269L52.6008 3.35468ZM51.1278 9.08064L51.9849 9.82754L57.2406 3.79614L56.3834 3.04924L51.1278 9.08064ZM32.8881 22.8374L55.7676 9.5221L51.7436 2.60778L28.8642 15.9231L32.8881 22.8374ZM4.55732 9.50712L28.9526 22.8873L32.7997 15.8731L8.40447 2.49288L4.55732 9.50712ZM9.50712 8.80035L9.98801 7.92357L2.97378 4.07643L2.49288 4.95321L9.50712 8.80035Z" fill="black"/>
</svg>
