<svg width="60" height="61" viewBox="0 0 60 61" fill="none" xmlns="http://www.w3.org/2000/svg">
<path d="M52.25 5.0481H7.75C7.02065 5.0481 6.32118 5.33783 5.80546 5.85355C5.28973 6.36928 5 7.06875 5 7.7981V52.2981C5 52.6592 5.07113 53.0168 5.20933 53.3505C5.34753 53.6841 5.5501 53.9873 5.80546 54.2426C6.06082 54.498 6.36398 54.7006 6.69762 54.8388C7.03127 54.977 7.38886 55.0481 7.75 55.0481H31.7V35.6731H25.2V28.1731H31.7V22.5481C31.5654 21.2275 31.7213 19.8934 32.1568 18.6394C32.5923 17.3855 33.2969 16.242 34.2212 15.2891C35.1454 14.3363 36.2669 13.5972 37.5071 13.1237C38.7472 12.6502 40.0759 12.4537 41.4 12.5481C43.3458 12.5361 45.2907 12.6363 47.225 12.8481V19.5981H43.25C40.1 19.5981 39.5 21.0981 39.5 23.2731V28.0981H47L46.025 35.5981H39.5V55.0481H52.25C52.6111 55.0481 52.9687 54.977 53.3024 54.8388C53.636 54.7006 53.9392 54.498 54.1946 54.2426C54.4499 53.9873 54.6525 53.6841 54.7907 53.3505C54.9289 53.0168 55 52.6592 55 52.2981V7.7981C55 7.43696 54.9289 7.07936 54.7907 6.74572C54.6525 6.41207 54.4499 6.10891 54.1946 5.85355C53.9392 5.59819 53.636 5.39563 53.3024 5.25743C52.9687 5.11923 52.6111 5.0481 52.25 5.0481Z" fill="black"/>
</svg>
