<svg width="60" height="61" viewBox="0 0 60 61" fill="none" xmlns="http://www.w3.org/2000/svg">
<path d="M43.35 13.6981C42.7567 13.6981 42.1767 13.874 41.6833 14.2037C41.19 14.5333 40.8055 15.0019 40.5784 15.55C40.3513 16.0982 40.2919 16.7014 40.4077 17.2834C40.5234 17.8653 40.8092 18.3999 41.2287 18.8194C41.6483 19.239 42.1828 19.5247 42.7648 19.6405C43.3467 19.7562 43.9499 19.6968 44.4981 19.4697C45.0463 19.2427 45.5148 18.8582 45.8444 18.3648C46.1741 17.8715 46.35 17.2914 46.35 16.6981C46.35 15.9024 46.034 15.1394 45.4714 14.5768C44.9087 14.0142 44.1457 13.6981 43.35 13.6981ZM54.85 19.7481C54.8014 17.6738 54.4129 15.6216 53.7 13.6731C53.0644 12.0059 52.075 10.4963 50.8 9.2481C49.5621 7.96666 48.0489 6.98354 46.375 6.3731C44.4317 5.6385 42.3772 5.24112 40.3 5.1981C37.65 5.0481 36.8 5.0481 30 5.0481C23.2 5.0481 22.35 5.0481 19.7 5.1981C17.6229 5.24112 15.5684 5.6385 13.625 6.3731C11.9542 6.98972 10.4424 7.972 9.20003 9.2481C7.9186 10.486 6.93547 11.9992 6.32503 13.6731C5.59043 15.6165 5.19306 17.671 5.15003 19.7481C5.00003 22.3981 5.00003 23.2481 5.00003 30.0481C5.00003 36.8481 5.00003 37.6981 5.15003 40.3481C5.19306 42.4252 5.59043 44.4797 6.32503 46.4231C6.93547 48.097 7.9186 49.6102 9.20003 50.8481C10.4424 52.1242 11.9542 53.1065 13.625 53.7231C15.5684 54.4577 17.6229 54.8551 19.7 54.8981C22.35 55.0481 23.2 55.0481 30 55.0481C36.8 55.0481 37.65 55.0481 40.3 54.8981C42.3772 54.8551 44.4317 54.4577 46.375 53.7231C48.0489 53.1127 49.5621 52.1295 50.8 50.8481C52.0806 49.6046 53.0709 48.0936 53.7 46.4231C54.4129 44.4746 54.8014 42.4224 54.85 40.3481C54.85 37.6981 55 36.8481 55 30.0481C55 23.2481 55 22.3981 54.85 19.7481ZM50.35 40.0481C50.3318 41.635 50.0444 43.2074 49.5 44.6981C49.1009 45.7861 48.4597 46.7692 47.625 47.5731C46.8142 48.3994 45.8331 49.0392 44.75 49.4481C43.2593 49.9925 41.687 50.2799 40.1 50.2981C37.6 50.4231 36.675 50.4481 30.1 50.4481C23.525 50.4481 22.6 50.4481 20.1 50.2981C18.4523 50.329 16.8115 50.0752 15.25 49.5481C14.2145 49.1183 13.2784 48.4801 12.5 47.6731C11.6703 46.87 11.0371 45.8861 10.65 44.7981C10.0397 43.286 9.70114 41.678 9.65003 40.0481C9.65003 37.5481 9.50003 36.6231 9.50003 30.0481C9.50003 23.4731 9.50003 22.5481 9.65003 20.0481C9.66124 18.4257 9.95741 16.818 10.525 15.2981C10.9651 14.2429 11.6407 13.3022 12.5 12.5481C13.2596 11.6885 14.1983 11.0058 15.25 10.5481C16.7739 9.99821 18.38 9.7108 20 9.6981C22.5 9.6981 23.425 9.5481 30 9.5481C36.575 9.5481 37.5 9.5481 40 9.6981C41.587 9.7163 43.1593 10.0037 44.65 10.5481C45.7861 10.9697 46.8058 11.6552 47.625 12.5481C48.4443 13.316 49.0844 14.2549 49.5 15.2981C50.0557 16.8204 50.3433 18.4275 50.35 20.0481C50.475 22.5481 50.5 23.4731 50.5 30.0481C50.5 36.6231 50.475 37.5481 50.35 40.0481ZM30 17.2231C27.4646 17.228 24.9874 17.9844 22.8817 19.3966C20.7759 20.8089 19.136 22.8136 18.1691 25.1575C17.2023 27.5014 16.9518 30.0793 17.4495 32.5654C17.9472 35.0516 19.1706 37.3344 20.9652 39.1255C22.7598 40.9167 25.0451 42.1356 27.5322 42.6285C30.0193 43.1213 32.5967 42.8659 34.9387 41.8944C37.2807 40.923 39.2822 39.2792 40.6904 37.1707C42.0985 35.0622 42.85 32.5836 42.85 30.0481C42.8533 28.3609 42.523 26.6896 41.8781 25.1305C41.2332 23.5714 40.2864 22.1551 39.0922 20.9632C37.898 19.7713 36.4799 18.8273 34.9195 18.1854C33.3591 17.5435 31.6873 17.2165 30 17.2231ZM30 38.3731C28.3535 38.3731 26.744 37.8848 25.3749 36.9701C24.0059 36.0553 22.9388 34.7551 22.3087 33.2339C21.6786 31.7127 21.5138 30.0389 21.835 28.424C22.1562 26.8091 22.9491 25.3257 24.1134 24.1614C25.2776 22.9972 26.761 22.2043 28.3759 21.8831C29.9908 21.5618 31.6647 21.7267 33.1859 22.3568C34.7071 22.9869 36.0073 24.0539 36.922 25.423C37.8368 26.792 38.325 28.4016 38.325 30.0481C38.325 31.1414 38.1097 32.2239 37.6913 33.2339C37.273 34.244 36.6597 35.1617 35.8867 35.9348C35.1137 36.7078 34.1959 37.321 33.1859 37.7394C32.1758 38.1578 31.0933 38.3731 30 38.3731Z" fill="black"/>
</svg>
