<svg width="60" height="61" viewBox="0 0 60 61" fill="none" xmlns="http://www.w3.org/2000/svg">
<path d="M55 14.5479C53.1209 15.3631 51.1336 15.902 49.1 16.1479C51.2454 14.8662 52.8532 12.8498 53.625 10.4729C51.6089 11.673 49.4019 12.5186 47.1 12.9729C45.5614 11.3043 43.5124 10.1936 41.2745 9.81502C39.0366 9.4364 36.7364 9.81128 34.7345 10.8809C32.7326 11.9504 31.1423 13.6542 30.2131 15.725C29.2839 17.7957 29.0682 20.1164 29.6 22.3229C25.5236 22.1167 21.5361 21.0553 17.8966 19.2075C14.2572 17.3598 11.0471 14.7671 8.475 11.5979C7.57284 13.1733 7.0988 14.9574 7.1 16.7729C7.0968 18.4588 7.51054 20.1194 8.30439 21.6068C9.09823 23.0942 10.2475 24.3622 11.65 25.2979C10.0199 25.2535 8.42471 24.8161 7 24.0229V24.1479C7.01222 26.5101 7.83999 28.7956 9.34329 30.6178C10.8466 32.44 12.9331 33.687 15.25 34.1479C14.3581 34.4193 13.4322 34.5624 12.5 34.5729C11.8547 34.5653 11.2111 34.5068 10.575 34.3979C11.2348 36.4299 12.5116 38.2058 14.2277 39.4783C15.9438 40.7508 18.0139 41.4568 20.15 41.4979C16.543 44.3361 12.0897 45.885 7.5 45.8979C6.66434 45.9006 5.82934 45.8505 5 45.7479C9.68607 48.7735 15.147 50.3797 20.725 50.3729C24.5742 50.4129 28.3928 49.6854 31.9578 48.2331C35.5227 46.7807 38.7626 44.6326 41.488 41.9141C44.2135 39.1957 46.3699 35.9614 47.8314 32.4002C49.2929 28.8389 50.0301 25.0222 50 21.1729C50 20.7479 50 20.2979 50 19.8479C51.9617 18.3849 53.6537 16.5914 55 14.5479Z" fill="black"/>
</svg>
